<svg width="22" height="37" viewBox="0 0 22 37" fill="none" xmlns="http://www.w3.org/2000/svg">
<path d="M22 1.01183C22 0.746609 21.8946 0.492255 21.7071 0.304719C21.5196 0.117183 21.2652 0.0118256 21 0.0118256H16C13.4822 -0.113593 11.0172 0.762609 9.14344 2.44899C7.26969 4.13536 6.13957 6.49482 6 9.01183V14.4118H1C0.734784 14.4118 0.48043 14.5172 0.292893 14.7047C0.105357 14.8923 0 15.1466 0 15.4118V20.6118C0 20.877 0.105357 21.1314 0.292893 21.3189C0.48043 21.5065 0.734784 21.6118 1 21.6118H6V35.0118C6 35.277 6.10536 35.5314 6.29289 35.7189C6.48043 35.9065 6.73478 36.0118 7 36.0118H13C13.2652 36.0118 13.5196 35.9065 13.7071 35.7189C13.8946 35.5314 14 35.277 14 35.0118V21.6118H19.24C19.4624 21.615 19.6795 21.544 19.857 21.41C20.0345 21.2759 20.1622 21.0866 20.22 20.8718L21.66 15.6718C21.6998 15.5241 21.7051 15.3692 21.6756 15.219C21.6461 15.0689 21.5826 14.9275 21.4898 14.8058C21.3971 14.6841 21.2777 14.5852 21.1407 14.5169C21.0038 14.4486 20.853 14.4127 20.7 14.4118H14V9.01183C14.0497 8.51678 14.2822 8.05805 14.652 7.72521C15.0219 7.39238 15.5025 7.20933 16 7.21183H21C21.2652 7.21183 21.5196 7.10647 21.7071 6.91893C21.8946 6.7314 22 6.47704 22 6.21183V1.01183Z" fill="white"/>
</svg>
